<svg id="Capa_1" data-name="Capa 1" xmlns="http://www.w3.org/2000/svg" viewBox="0 0 306 79.68"><defs><style>.cls-1{fill:#1d1d1b;}.cls-2{fill:#dc0b18;}.cls-3{fill:#1d1e1c;}.cls-4{fill:#fff;}</style></defs><title>logo-dark</title><path class="cls-1" d="M93.65,58.3v2.26h4.11v1.35H93.65v2.47h4.5v1.35h-6V57h6V58.3Z"/><path class="cls-1" d="M100.07,57h1.42v8.78h-1.42Z"/><path class="cls-1" d="M103,62.69a2.9,2.9,0,0,1,3-3.13,2.75,2.75,0,0,1,2.89,2.86,5.07,5.07,0,0,1,0,.66H104.4A1.61,1.61,0,0,0,106,64.65a1.55,1.55,0,0,0,1.57-1.1l1.28.42A2.84,2.84,0,0,1,106,65.85,3,3,0,0,1,103,62.69Zm4.46-.56A1.36,1.36,0,0,0,106,60.76a1.54,1.54,0,0,0-1.57,1.37Z"/><path class="cls-1" d="M116.21,59.68l-2.35,6.05H112l-2.36-6.05h1.59l1.55,4.38h.26l1.57-4.38Z"/><path class="cls-1" d="M122.4,61.87v3.86H121v-.66h-.27a1.92,1.92,0,0,1-1.7.78,1.77,1.77,0,0,1-2-1.78c0-1.06.79-1.65,2.26-1.77l1.7-.12v-.3a1.14,1.14,0,0,0-1.27-1.08,1.2,1.2,0,0,0-1.24.92l-1.26-.39a2.42,2.42,0,0,1,2.53-1.77A2.39,2.39,0,0,1,122.4,61.87ZM121,63.34v-.26l-1.7.13c-.49,0-.91.24-.91.74s.45.74,1,.74A1.45,1.45,0,0,0,121,63.34Z"/><path class="cls-1" d="M128,65.47a2.9,2.9,0,0,1-1.4.33A1.69,1.69,0,0,1,124.75,64V60.83h-1.17V59.68h1.17v-2h1.42v2h1.55v1.15h-1.55v3.09a.62.62,0,0,0,.66.68,1.74,1.74,0,0,0,.82-.19Z"/><path class="cls-1" d="M129.22,62.69a2.9,2.9,0,0,1,3-3.13,2.75,2.75,0,0,1,2.89,2.86,5.07,5.07,0,0,1,0,.66h-4.42a1.61,1.61,0,0,0,1.63,1.57,1.56,1.56,0,0,0,1.57-1.1l1.28.42a2.84,2.84,0,0,1-2.87,1.88A3,3,0,0,1,129.22,62.69Zm4.46-.56a1.36,1.36,0,0,0-1.45-1.37,1.53,1.53,0,0,0-1.57,1.37Z"/><path class="cls-1" d="M146.65,57l-3.09,5.51v3.27h-1.49V62.46L139,57h1.64l2,3.95H143L145,57Z"/><path class="cls-1" d="M146.69,62.68a3.1,3.1,0,1,1,6.2,0,3.1,3.1,0,1,1-6.2,0Zm4.78,0a1.69,1.69,0,1,0-3.36,0,1.69,1.69,0,1,0,3.36,0Z"/><path class="cls-1" d="M160.12,59.68v6.05H158.7v-.82h-.26a2.08,2.08,0,0,1-1.77.94,2.23,2.23,0,0,1-2.16-2.48v-3.7h1.42v3.47a1.25,1.25,0,0,0,1.26,1.4c.9,0,1.51-.78,1.51-2V59.68Z"/><path class="cls-1" d="M166.06,59.7,166,61a4.57,4.57,0,0,0-.74,0c-.84,0-1.62.59-1.62,1.9v2.87h-1.42V59.68h1.42v.94h.26a2,2,0,0,1,1.63-1A1.21,1.21,0,0,1,166.06,59.7Z"/><path class="cls-1" d="M178.05,61.3c0,2.68-1.86,4.43-4.69,4.43h-2.83V57h2.83C176.19,57,178.05,58.62,178.05,61.3Zm-1.5,0a2.89,2.89,0,0,0-3.19-3H172v6.08h1.33A3,3,0,0,0,176.55,61.3Z"/><path class="cls-1" d="M179.53,57.83a.95.95,0,1,1,.93,1A.94.94,0,0,1,179.53,57.83Zm.24,1.85h1.42v6.05h-1.42Z"/><path class="cls-1" d="M188.25,60.69V61a1.22,1.22,0,0,1,.41,1c0,1.23-1.12,2-2.72,2h-1c-.35,0-.64,0-.64.35s.42.36.71.36h1.79c1.68,0,2.36.75,2.36,1.79,0,1.5-1.34,2.26-3.34,2.26s-3.08-.69-3.08-1.91A1.4,1.4,0,0,1,184,65.36V65.1a.93.93,0,0,1-.78-.91.88.88,0,0,1,.71-.87,2,2,0,0,1-.76-1.6c0-1.31,1.12-2.16,2.77-2.16h3.46v1.13Zm-4.05,5.82c0,.63.59,1,1.74,1s1.83-.34,1.83-1-.42-.82-1.19-.82H185.3C184.58,65.69,184.2,66,184.2,66.51Zm3-4.76c0-.63-.54-1.06-1.34-1.06s-1.35.43-1.35,1.06.55,1,1.35,1S187.24,62.4,187.24,61.75Z"/><path class="cls-1" d="M190.53,57.83a.95.95,0,1,1,.94,1A.94.94,0,0,1,190.53,57.83Zm.25,1.85h1.42v6.05h-1.42Z"/><path class="cls-1" d="M198,65.47a2.85,2.85,0,0,1-1.39.33A1.69,1.69,0,0,1,194.76,64V60.83H193.6V59.68h1.16v-2h1.42v2h1.56v1.15h-1.56v3.09a.62.62,0,0,0,.67.68,1.7,1.7,0,0,0,.81-.19Z"/><path class="cls-1" d="M204.72,61.87v3.86H203.3v-.66H203a2,2,0,0,1-1.7.78,1.77,1.77,0,0,1-2-1.78c0-1.06.79-1.65,2.26-1.77l1.7-.12v-.3A1.14,1.14,0,0,0,202,60.8a1.19,1.19,0,0,0-1.23.92l-1.26-.39a2.42,2.42,0,0,1,2.53-1.77A2.39,2.39,0,0,1,204.72,61.87Zm-1.42,1.47v-.26l-1.7.13c-.49,0-.91.24-.91.74s.44.74,1,.74A1.45,1.45,0,0,0,203.3,63.34Z"/><path class="cls-1" d="M206.64,57h1.43v8.78h-1.43Z"/><path class="cls-1" d="M219.77,59.83c0,1.77-1.25,2.86-3.29,2.86H215v3h-1.5V57h3C218.52,57,219.77,58.05,219.77,59.83Zm-1.5,0c0-.94-.64-1.55-1.8-1.55H215v3.12h1.52C217.63,61.38,218.27,60.77,218.27,59.81Z"/><path class="cls-1" d="M225.15,59.7,225.1,61a4.57,4.57,0,0,0-.74,0c-.84,0-1.62.59-1.62,1.9v2.87h-1.42V59.68h1.42v.94H223a2,2,0,0,1,1.63-1A1.21,1.21,0,0,1,225.15,59.7Z"/><path class="cls-1" d="M225.93,62.69a2.9,2.9,0,0,1,3-3.13,2.75,2.75,0,0,1,2.89,2.86,5.07,5.07,0,0,1,0,.66h-4.42A1.61,1.61,0,0,0,229,64.65a1.55,1.55,0,0,0,1.57-1.1l1.28.42A2.84,2.84,0,0,1,229,65.85,3,3,0,0,1,225.93,62.69Zm4.46-.56a1.36,1.36,0,0,0-1.45-1.37,1.54,1.54,0,0,0-1.57,1.37Z"/><path class="cls-1" d="M235.52,62.09c1.06.21,2.55.39,2.55,1.8,0,1.18-1,2-2.48,2A2.5,2.5,0,0,1,233,64l1.34-.32a1.21,1.21,0,0,0,1.26,1c.58,0,1-.27,1-.71s-.38-.51-1.13-.65c-.91-.15-2.33-.38-2.33-1.81,0-1.2,1-1.92,2.29-1.92a2.41,2.41,0,0,1,2.47,1.69l-1.34.33a1.08,1.08,0,0,0-1.1-.82c-.5,0-.9.22-.9.65S234.92,62,235.52,62.09Z"/><path class="cls-1" d="M239.33,62.69a2.9,2.9,0,0,1,3-3.13,2.75,2.75,0,0,1,2.89,2.86q0,.31,0,.66h-4.43a1.62,1.62,0,0,0,1.63,1.57,1.55,1.55,0,0,0,1.57-1.1l1.29.42a2.85,2.85,0,0,1-2.87,1.88A3,3,0,0,1,239.33,62.69Zm4.47-.56a1.36,1.36,0,0,0-1.45-1.37,1.53,1.53,0,0,0-1.57,1.37Z"/><path class="cls-1" d="M252.55,62.05v3.68h-1.42V62.27a1.27,1.27,0,0,0-1.29-1.4c-.91,0-1.51.72-1.51,1.81v3.05h-1.42V59.68h1.42v.8h.26a2.12,2.12,0,0,1,1.79-.92A2.24,2.24,0,0,1,252.55,62.05Z"/><path class="cls-1" d="M258.6,63.4l1.4.33a2.76,2.76,0,0,1-2.86,2.12,3,3,0,0,1-3-3.17,2.92,2.92,0,0,1,3-3.12A2.75,2.75,0,0,1,260,61.69l-1.4.32a1.47,1.47,0,0,0-1.46-1.1,1.63,1.63,0,0,0-1.61,1.78,1.65,1.65,0,0,0,1.61,1.81A1.48,1.48,0,0,0,258.6,63.4Z"/><path class="cls-1" d="M261.08,62.69a2.9,2.9,0,0,1,3-3.13A2.75,2.75,0,0,1,267,62.42a5.07,5.07,0,0,1,0,.66h-4.42a1.61,1.61,0,0,0,1.63,1.57,1.56,1.56,0,0,0,1.57-1.1L267,64a2.84,2.84,0,0,1-2.86,1.88A3,3,0,0,1,261.08,62.69Zm4.46-.56a1.36,1.36,0,0,0-1.45-1.37,1.53,1.53,0,0,0-1.57,1.37Z"/><path class="cls-1" d="M105.6,44.64l-4.12-8.57H98.15v8.57H92V18.32h9.23c6.67,0,10.6,3.3,10.6,8.86A8,8,0,0,1,107,35l4.9,9.64ZM98.15,30.88h3c3.15,0,4.63-1.37,4.63-3.7s-1.48-3.67-4.63-3.67h-3Z"/><path class="cls-1" d="M115.75,20.73a3.51,3.51,0,1,1,3.48,3.52A3.48,3.48,0,0,1,115.75,20.73Zm.67,5.56h5.74V44.64h-5.74Z"/><path class="cls-1" d="M146.37,33.81V44.64h-5.75V34.92c0-2.29-1.33-3.81-3.37-3.81s-3.6,1.74-3.6,4.37v9.16h-5.74V26.29h5.74v2h1a6.24,6.24,0,0,1,5-2.37C143.44,25.92,146.37,29.07,146.37,33.81Z"/><path class="cls-1" d="M168,30.18v1a3.13,3.13,0,0,1,.86,2.27c0,3.59-3.52,5.89-8.57,5.89h-2.52c-1,0-1.77,0-1.77.81s1,.86,1.77.86h5c6.15,0,8,2.63,8,5.89,0,5-4.23,7.38-10.71,7.38-6.08,0-9.71-2.12-9.71-5.86,0-2.78,2-4.08,4-4.49v-1c-1.41-.41-2.71-1.22-2.71-3a2.74,2.74,0,0,1,1.82-2.7,6.07,6.07,0,0,1-2.12-4.71c0-3.93,3.53-6.56,8.79-6.56H171.2v4.26ZM156,47.12c0,1.56,1.49,2.48,4.34,2.48s4.59-.92,4.59-2.48c0-1.26-1.11-2.08-3-2.08h-3.26C157,45,156,45.82,156,47.12Zm7.08-14.49c0-1.41-1.18-2.45-3-2.45s-3,1-3,2.45,1.22,2.41,3,2.41S163.08,34.15,163.08,32.63Z"/><path class="cls-1" d="M173.42,35.41c0-5.6,3.86-9.49,9.64-9.49s9.64,3.89,9.64,9.49-3.86,9.6-9.64,9.6S173.42,41,173.42,35.41Zm13.53,0c0-2.6-1.56-4.49-3.89-4.49s-3.89,1.86-3.89,4.49S180.72,40,183.06,40,187,38,187,35.41Z"/><path class="cls-2" d="M226.13,18.32V44.64H220V31h-1l-4.82,10.67h-4.78L204.59,31h-1V44.64h-6.12V18.32h7l6.93,15.49h1l6.74-15.49Z"/><path class="cls-2" d="M231,35.41c0-5.6,3.75-9.49,9.27-9.49s9,3.78,9,8.78c0,.71-.07,1.41-.15,2.26H236.65a3.77,3.77,0,0,0,3.86,3.41,3.69,3.69,0,0,0,3.7-2.52l5.19,1.6c-.74,2.81-4.26,5.56-9,5.56C234.84,45,231,41.08,231,35.41Zm12.64-2a3,3,0,0,0-3.26-2.89,3.45,3.45,0,0,0-3.56,2.89Z"/><path class="cls-2" d="M266,28.33h1v-10h5.75V44.64h-5.75V42.49h-1A6.32,6.32,0,0,1,260.63,45c-4.78,0-8.26-3.86-8.26-9.46s3.59-9.63,8.37-9.63A6.35,6.35,0,0,1,266,28.33Zm1,7.08a4,4,0,0,0-4.15-4.3,4.16,4.16,0,0,0-4.3,4.41,4,4,0,0,0,4.19,4.3A4.15,4.15,0,0,0,266.93,35.41Z"/><path class="cls-2" d="M277.65,20.73a3.5,3.5,0,1,1,3.48,3.52A3.48,3.48,0,0,1,277.65,20.73Zm.66,5.56h5.75V44.64h-5.75Z"/><path class="cls-2" d="M306,33V44.64h-5.75v-2h-1A5.15,5.15,0,0,1,294.58,45c-3.55,0-5.89-2-5.89-5.34s2.26-5,7.15-5.41l4.41-.37V33c0-1.29-1.26-2.29-3-2.29A2.94,2.94,0,0,0,294.1,33l-5-1.48c.85-3.52,4-5.63,8.3-5.63C302.48,25.92,306,28.85,306,33Zm-5.75,4.67v-.48l-4.41.37c-.81.07-1.77.44-1.77,1.59s1.11,1.41,2.07,1.41C298,40.56,300.25,39.63,300.25,37.67Z"/><path class="cls-3" d="M70.18,57.71V22a4.12,4.12,0,0,0-2.06-3.54L37.15.56A4.05,4.05,0,0,0,33,.56l-31,17.85A4.1,4.1,0,0,0,0,22V57.71a4.1,4.1,0,0,0,2.06,3.53L33,79.12a4.05,4.05,0,0,0,4.12,0l31-17.88A4.14,4.14,0,0,0,70.18,57.71Z"/><path class="cls-4" d="M22,22.58a1.29,1.29,0,0,0-1.3,1.29,1.34,1.34,0,0,0,.38.93l2.35,2.34H46.88a7,7,0,0,1,7,7v0a7,7,0,0,1-7,7H44.24c-.34,0-1.23,1.79-1.47,1.55l3.94,3.05,1.5-.09A11.59,11.59,0,0,0,58.45,34.16v0h0A11.6,11.6,0,0,0,46.88,22.58Z"/><path class="cls-2" d="M36.34,45.74l-4.58-4.58-3-3-.6-.6a1.33,1.33,0,0,0-.94-.39H24.75a1.33,1.33,0,0,0-.94,2.27l1.71,1.71.2.2,4.38,4.38.58.58,10.4,10.4a1.32,1.32,0,0,0,.94.38H44.5a1.32,1.32,0,0,0,1.33-1.31,1.34,1.34,0,0,0-.39-.95l-8.52-8.51Z"/><path class="cls-2" d="M48.67,45.74,44.1,41.16l-3-3-.6-.6a1.33,1.33,0,0,0-.94-.39H37.09a1.33,1.33,0,0,0-.94,2.27l1.71,1.71.2.2,4.37,4.38.59.58,10.4,10.4a1.31,1.31,0,0,0,.94.38h2.47a1.32,1.32,0,0,0,1.34-1.31,1.31,1.31,0,0,0-.4-.95l-8.51-8.51Z"/><path class="cls-2" d="M24.64,45.74l-4.58-4.58-3-3-.61-.6a1.33,1.33,0,0,0-.94-.39H13.05a1.34,1.34,0,0,0-1.33,1.33,1.42,1.42,0,0,0,.39.94l1.71,1.71.2.2,4.38,4.38.58.58,10.4,10.4a1.32,1.32,0,0,0,.94.38H32.8a1.31,1.31,0,0,0,1.33-1.31,1.34,1.34,0,0,0-.39-.95l-8.51-8.51Z"/></svg>